<svg xmlns="http://www.w3.org/2000/svg" viewBox="0 0 136 12"><defs><linearGradient id="t7mda" x1="135.13" x2=".64" y1="5.72" y2="5.72" gradientUnits="userSpaceOnUse"><stop offset="0" stop-color="#e00"/><stop offset="1" stop-color="#07f"/></linearGradient></defs><g><g><path fill="url(#t7mda)" d="M135.132 2.568h-3.44V11h-2.752V2.568h-3.456V.44h9.648zM123.416 11h-3.056l-3.28-5.712-.8-1.6h-.016l.064 1.984V11h-2.432V.44h3.056l3.28 5.712.8 1.6h.016l-.064-1.984V.44h2.432zm-11.684-2.128V11H103.3V.44h8.224v2.128h-5.472v2.144h4.352v2h-4.352v2.16zM100.464 11h-2.752V.44h2.752zM89.932 8.92c.885 0 1.536-.267 1.952-.8.416-.533.624-1.333.624-2.4s-.208-1.867-.624-2.4c-.416-.533-1.067-.8-1.952-.8h-1.456v6.4zm.272-8.48c1.653 0 2.92.456 3.8 1.368.88.912 1.32 2.216 1.32 3.912 0 1.696-.44 3-1.32 3.912-.88.912-2.147 1.368-3.8 1.368h-4.48V.44zm-10.35 6.304l-.765-2.528-.462-1.664h-.032l-.43 1.648-.797 2.544zm.586 1.872h-3.648L76.056 11h-2.768L77 .44h3.296L83.992 11H81.16zM65.572 5.192h1.872c.587 0 1.013-.107 1.28-.32.267-.213.4-.555.4-1.024 0-.459-.133-.795-.4-1.008-.267-.213-.693-.32-1.28-.32h-1.872zm1.648 1.952h-1.648V11h-2.704V.44h5.04c1.28 0 2.264.288 2.952.864.688.576 1.032 1.408 1.032 2.496 0 .768-.176 1.408-.528 1.92-.352.512-.864.89-1.536 1.136L72.516 11h-3.04zm-6.958-1.856V11h-1.918l-.08-1.248c-.607.939-1.614 1.408-3.02 1.408-.96 0-1.81-.21-2.55-.632-.741-.421-1.319-1.04-1.735-1.856-.415-.816-.623-1.795-.623-2.936 0-1.13.213-2.104.64-2.92a4.461 4.461 0 0 1 1.822-1.88c.788-.437 1.72-.656 2.797-.656 1.204 0 2.174.213 2.909.64.735.427 1.316 1.115 1.742 2.064l-2.541 1.008c-.128-.523-.368-.912-.72-1.168-.351-.256-.788-.384-1.31-.384-.81 0-1.43.277-1.862.832-.432.555-.648 1.37-.648 2.448 0 2.219.863 3.328 2.59 3.328.65 0 1.174-.15 1.574-.448.4-.299.6-.73.6-1.296v-.16h-2.622V5.288zM44.124.28c1.003 0 1.859.15 2.568.448.71.299 1.368.784 1.976 1.456l-1.552 1.792c-.352-.533-.765-.925-1.24-1.176-.475-.25-1.043-.376-1.704-.376-.555 0-.981.096-1.28.288-.299.192-.448.448-.448.768 0 .267.157.483.472.648.315.165.85.317 1.608.456 1.461.267 2.504.656 3.128 1.168.624.512.936 1.232.936 2.16 0 .672-.192 1.253-.576 1.744-.384.49-.915.864-1.592 1.12-.677.256-1.443.384-2.296.384-1.195 0-2.165-.147-2.912-.44a5.04 5.04 0 0 1-1.936-1.352l1.408-1.92c.416.576.885.981 1.408 1.216.523.235 1.152.352 1.888.352.587 0 1.027-.083 1.32-.248.293-.165.44-.403.44-.712 0-.245-.157-.445-.472-.6-.315-.155-.84-.301-1.576-.44-.907-.181-1.656-.397-2.248-.648-.592-.25-1.05-.59-1.376-1.016-.325-.427-.488-.97-.488-1.632 0-.661.179-1.253.536-1.776.357-.523.88-.93 1.568-1.224.688-.293 1.501-.44 2.44-.44zM28.716 11h-3.09L22.584.44h2.962l1.745 8.4 1.905-8.4h2.498l1.937 8.384L35.376.44h2.85L35.168 11h-2.994l-1.249-5.12-.48-2.576h-.032l-.464 2.576zm-7.288-2.128V11h-8.432V.44h8.224v2.128h-5.472v2.144H20.1v2h-4.352v2.16zM10.16 11H7.104l-3.28-5.712-.8-1.6h-.016l.064 1.984V11H.64V.44h3.056l3.28 5.712.8 1.6h.016l-.064-1.984V.44h2.432z"/></g></g></svg>
