<svg xmlns="http://www.w3.org/2000/svg" viewBox="0 8 128 112">
  <defs>
    <linearGradient id="d3156" x1="135.1" x2=".6" y1="5.7" y2="5.7" gradientUnits="userSpaceOnUse">
      <stop offset="0" stop-color="#e00" />
      <stop offset="1" stop-color="#07f" />
    </linearGradient>
  </defs>
  <g fill="url(#d3156)">
    <path
      d="M64.1 83.3c-7.8 0-15 3.4-18.1 8.7a2 2 0 103.4 2c2.5-4 8.3-6.7 14.7-6.7 6 0 11.7 2.4 14.3 6.2a2 2 0 103.3-2.3c-3.4-4.9-10.2-7.9-17.6-7.9zM48.6 70.4a2 2 0 002.8-2.8L44.8 61l6.6-6.6a2 2 0 00-2.8-2.8L42 58.2l-6.6-6.6a2 2 0 00-2.8 2.8l6.6 6.6-6.6 6.6a2 2 0 102.8 2.8l6.6-6.6zm46.8-18.8a2 2 0 00-2.8 0L86 58.2l-6.6-6.6a2 2 0 00-2.8 2.8l6.6 6.6-6.6 6.6a2 2 0 102.8 2.8l6.6-6.6 6.6 6.6a2 2 0 002.8-2.8L88.8 61l6.6-6.6a2 2 0 000-2.8z"
    />
    <path
      d="M120 24H53a2.7 2.7 0 01-3-3v-6a6.7 6.7 0 00-7-7H7a6.7 6.7 0 00-7 7v97.3a8.3 8.3 0 002.4 5.8 6.4 6.4 0 004.1 1.8 2 2 0 00.5.1h114c4.3 0 7-4.2 7-8V32c0-5-3-8-8-8zm4 88c0 2-1.2 4-3 4H7.4a2.5 2.5 0 00-.4 0 2.4 2.4 0 01-1.8-.8 4.3 4.3 0 01-1.2-3V15a2.7 2.7 0 013-3h36a2.7 2.7 0 013 3v6a6.7 6.7 0 007 7h67c2.9 0 4 1.1 4 4z"
    />
  </g>
</svg>
