<svg xmlns="http://www.w3.org/2000/svg" viewBox="0 0 64.09 50.25">
  <defs>
    <style>.cls-1{fill:#fff;stroke:#fff;stroke-miterlimit:10;stroke-width:2px;}</style>
  </defs>
  <g id="Layer_2" data-name="Layer 2">
    <g id="Layer_1-2" data-name="Layer 1">
      <path class="cls-1"
            d="M62.62,26.63c0-.13.13-.13.13-.25s.12-.13.12-.26a.45.45,0,0,1,.13-.25v-.25a1.42,1.42,0,0,0,0-1c0-.12,0-.12-.13-.25s0-.12-.12-.25a.45.45,0,0,0-.13-.25.12.12,0,0,0-.12-.12l-.37-.38L40.87,1.75a2.72,2.72,0,0,0-3.75,0,2.74,2.74,0,0,0,0,3.75l17,17H3.5a2.63,2.63,0,0,0,.12,5.25H54.25l-17.13,17a2.74,2.74,0,0,0,0,3.75,2.56,2.56,0,0,0,1.88.75,2.74,2.74,0,0,0,1.87-.75L62.37,27a.12.12,0,0,1,.13-.12A.42.42,0,0,1,62.62,26.63Z"/>
    </g>
  </g>
</svg>
