<svg xmlns="http://www.w3.org/2000/svg" viewBox="22.011 5.953 55.989 88.047"><path d="M42.898 27.555c-6.696.664-4.182 8.845-4.66 13.293-.068 8.121.005 16.336-.194 24.406-3.8-2.736-6.758-10.59-12.441-8.533-4.265 3.927 2.43 8.698 3.687 12.482 5.68 8.967 11.59 21.593 23.575 22.621 9.2 1.518 20.02-2.846 22.406-12.58 1.444-9.131.485-18.596.428-27.783-1.474-5.275-9.074-2.493-7.77 2.473-.004 1.297-.205 6.426-.24 1.728.798-3.955-.13-11.5-5.844-9.686-4.305 2.02-2.314 7.565-2.836 11.264-.518-4.825 1.912-13.939-5.414-14.039-6.844.395-4.689 8.708-5.002 13.203-.658-8.782 1.02-18.032-.846-26.596-1.013-1.6-2.991-2.424-4.85-2.253z" fill="#fff"/><path d="M42.594 5.969A2 2 0 0 0 40.844 8v10.188a2 2 0 1 0 4 0V8a2 2 0 0 0-2.25-2.031zm-15.157 8.125a2 2 0 0 0-1.312 3.406l6.688 7.219a2.012 2.012 0 1 0 2.937-2.75l-6.719-7.219a2 2 0 0 0-1.593-.656zm30.532 0a2 2 0 0 0-1.344.656l-6.719 7.219a2.012 2.012 0 1 0 2.938 2.75l6.718-7.219a2 2 0 0 0-1.593-3.406zM43.375 25.438c-3.884 0-7.219 3.003-7.219 6.843v28c-1.029-1.162-2.212-2.556-3.187-3.468-1.012-.948-2.06-1.76-3.313-2.25-1.253-.491-2.728-.56-4.125-.126-1.674.52-2.712 1.874-3.218 3.407-.507 1.532-.43 3.431.656 5.031 3.5 5.157 7.288 12.76 12.031 19.188C39.743 88.49 45.7 94 53.625 94h4.344C68.969 94 78 85.553 78 74.5V53.25c0-3.6-2.55-6.875-6.094-6.875-1.096 0-2.073.396-2.937.938-1.06-2.161-3.08-3.75-5.594-3.75-1.279 0-2.42.479-3.406 1.156-1.238-2.13-3.556-3.594-6.219-3.594-1.163 0-2.2.334-3.188.813V32.28c0-3.84-3.303-6.843-7.187-6.843zm0 4c1.877 0 3.188 1.3 3.188 2.843v24.813a2 2 0 1 0 4 0v-9.282a2 2 0 0 0 .03-.156c.162-1.375 1.408-2.531 3.157-2.531 1.876 0 3.186 1.29 3.188 2.844l.03 9.593a2 2 0 1 0 4 0l-.03-7.437a2 2 0 0 0 0-.031 2 2 0 0 0 .093-.282c.257-1.381 1.239-2.25 2.344-2.25 1.265 0 2.406 1.16 2.406 2.876v7.25a2 2 0 1 0 4 0v-4.782a2 2 0 0 0 .063-.25c.225-1.47 1.171-2.281 2.062-2.281 1.003 0 2.094 1.09 2.094 2.875V74.5C74 83.4 66.962 90 57.969 90h-4.344c-6.062 0-10.964-4.293-15.406-10.313-4.443-6.019-8.174-13.516-11.938-19.062-.326-.48-.357-1.018-.187-1.531.17-.514.568-.826.625-.844.606-.188.972-.144 1.5.063.528.206 1.216.674 2.031 1.437 1.63 1.526 3.673 4.1 6.469 7a2 2 0 0 0 3.437-1.375V32.281c0-1.543 1.342-2.843 3.219-2.843z"/></svg>
